<svg width="248" height="183" viewBox="0 0 248 183" fill="none" xmlns="http://www.w3.org/2000/svg">
<g opacity="0.5">
<path d="M8.18564 6.08988C8.18564 9.45322 5.45779 12.1798 2.09282 12.1798C-1.27215 12.1798 -4 9.45322 -4 6.08988C-4 2.72653 -1.27215 0 2.09282 0C5.45779 0 8.18564 2.72653 8.18564 6.08988Z" fill="#FF7272"/>
<path d="M8.18564 30.4494C8.18564 33.8127 5.45779 36.5393 2.09282 36.5393C-1.27215 36.5393 -4 33.8127 -4 30.4494C-4 27.086 -1.27215 24.3595 2.09282 24.3595C5.45779 24.3595 8.18564 27.086 8.18564 30.4494Z" fill="#FF7272"/>
<path d="M8.18564 54.8089C8.18564 58.1722 5.45779 60.8988 2.09282 60.8988C-1.27215 60.8988 -4 58.1722 -4 54.8089C-4 51.4456 -1.27215 48.719 2.09282 48.719C5.45779 48.719 8.18564 51.4456 8.18564 54.8089Z" fill="#FF7272"/>
<path d="M8.18564 79.1684C8.18564 82.5318 5.45779 85.2583 2.09282 85.2583C-1.27215 85.2583 -4 82.5318 -4 79.1684C-4 75.8051 -1.27215 73.0785 2.09282 73.0785C5.45779 73.0785 8.18564 75.8051 8.18564 79.1684Z" fill="#FF7272"/>
<path d="M8.18564 103.528C8.18564 106.891 5.45779 109.618 2.09282 109.618C-1.27215 109.618 -4 106.891 -4 103.528C-4 100.165 -1.27215 97.438 2.09282 97.438C5.45779 97.438 8.18564 100.165 8.18564 103.528Z" fill="#FF7272"/>
<path d="M8.18564 127.887C8.18564 131.251 5.45779 133.977 2.09282 133.977C-1.27215 133.977 -4 131.251 -4 127.887C-4 124.524 -1.27215 121.798 2.09282 121.798C5.45779 121.798 8.18564 124.524 8.18564 127.887Z" fill="#FF7272"/>
<path d="M8.18564 152.247C8.18564 155.61 5.45779 158.337 2.09282 158.337C-1.27215 158.337 -4 155.61 -4 152.247C-4 148.884 -1.27215 146.157 2.09282 146.157C5.45779 146.157 8.18564 148.884 8.18564 152.247Z" fill="#FF7272"/>
<path d="M8.18564 176.606C8.18564 179.97 5.45779 182.696 2.09282 182.696C-1.27215 182.696 -4 179.97 -4 176.606C-4 173.243 -1.27215 170.517 2.09282 170.517C5.45779 170.517 8.18564 173.243 8.18564 176.606Z" fill="#FF7272"/>
<path d="M42.3054 6.08988C42.3054 9.45322 39.5776 12.1798 36.2126 12.1798C32.8477 12.1798 30.1198 9.45322 30.1198 6.08988C30.1198 2.72653 32.8477 0 36.2126 0C39.5776 0 42.3054 2.72653 42.3054 6.08988Z" fill="#FF7272"/>
<path d="M42.3054 30.4494C42.3054 33.8127 39.5776 36.5393 36.2126 36.5393C32.8477 36.5393 30.1198 33.8127 30.1198 30.4494C30.1198 27.086 32.8477 24.3595 36.2126 24.3595C39.5776 24.3595 42.3054 27.086 42.3054 30.4494Z" fill="#FF7272"/>
<path d="M42.3054 54.8089C42.3054 58.1722 39.5776 60.8988 36.2126 60.8988C32.8477 60.8988 30.1198 58.1722 30.1198 54.8089C30.1198 51.4456 32.8477 48.719 36.2126 48.719C39.5776 48.719 42.3054 51.4456 42.3054 54.8089Z" fill="#FF7272"/>
<path d="M42.3054 79.1684C42.3054 82.5318 39.5776 85.2583 36.2126 85.2583C32.8477 85.2583 30.1198 82.5318 30.1198 79.1684C30.1198 75.8051 32.8477 73.0785 36.2126 73.0785C39.5776 73.0785 42.3054 75.8051 42.3054 79.1684Z" fill="#FF7272"/>
<path d="M42.3054 103.528C42.3054 106.891 39.5776 109.618 36.2126 109.618C32.8477 109.618 30.1198 106.891 30.1198 103.528C30.1198 100.165 32.8477 97.438 36.2126 97.438C39.5776 97.438 42.3054 100.165 42.3054 103.528Z" fill="#FF7272"/>
<path d="M42.3054 127.887C42.3054 131.251 39.5776 133.977 36.2126 133.977C32.8477 133.977 30.1198 131.251 30.1198 127.887C30.1198 124.524 32.8477 121.798 36.2126 121.798C39.5776 121.798 42.3054 124.524 42.3054 127.887Z" fill="#FF7272"/>
<path d="M42.3054 152.247C42.3054 155.61 39.5776 158.337 36.2126 158.337C32.8477 158.337 30.1198 155.61 30.1198 152.247C30.1198 148.884 32.8477 146.157 36.2126 146.157C39.5776 146.157 42.3054 148.884 42.3054 152.247Z" fill="#FF7272"/>
<path d="M42.3054 176.606C42.3054 179.97 39.5776 182.696 36.2126 182.696C32.8477 182.696 30.1198 179.97 30.1198 176.606C30.1198 173.243 32.8477 170.517 36.2126 170.517C39.5776 170.517 42.3054 173.243 42.3054 176.606Z" fill="#FF7272"/>
<path d="M76.4252 6.08988C76.4252 9.45322 73.6974 12.1798 70.3324 12.1798C66.9675 12.1798 64.2396 9.45322 64.2396 6.08988C64.2396 2.72653 66.9675 0 70.3324 0C73.6974 0 76.4252 2.72653 76.4252 6.08988Z" fill="#FF7272"/>
<path d="M76.4252 30.4494C76.4252 33.8127 73.6974 36.5393 70.3324 36.5393C66.9675 36.5393 64.2396 33.8127 64.2396 30.4494C64.2396 27.086 66.9675 24.3595 70.3324 24.3595C73.6974 24.3595 76.4252 27.086 76.4252 30.4494Z" fill="#FF7272"/>
<path d="M76.4252 54.8089C76.4252 58.1722 73.6974 60.8988 70.3324 60.8988C66.9675 60.8988 64.2396 58.1722 64.2396 54.8089C64.2396 51.4456 66.9675 48.719 70.3324 48.719C73.6974 48.719 76.4252 51.4456 76.4252 54.8089Z" fill="#FF7272"/>
<path d="M76.4252 79.1684C76.4252 82.5318 73.6974 85.2583 70.3324 85.2583C66.9675 85.2583 64.2396 82.5318 64.2396 79.1684C64.2396 75.8051 66.9675 73.0785 70.3324 73.0785C73.6974 73.0785 76.4252 75.8051 76.4252 79.1684Z" fill="#FF7272"/>
<path d="M76.4252 103.528C76.4252 106.891 73.6974 109.618 70.3324 109.618C66.9675 109.618 64.2396 106.891 64.2396 103.528C64.2396 100.165 66.9675 97.438 70.3324 97.438C73.6974 97.438 76.4252 100.165 76.4252 103.528Z" fill="#FF7272"/>
<path d="M76.4252 127.887C76.4252 131.251 73.6974 133.977 70.3324 133.977C66.9675 133.977 64.2396 131.251 64.2396 127.887C64.2396 124.524 66.9675 121.798 70.3324 121.798C73.6974 121.798 76.4252 124.524 76.4252 127.887Z" fill="#FF7272"/>
<path d="M76.4252 152.247C76.4252 155.61 73.6974 158.337 70.3324 158.337C66.9675 158.337 64.2396 155.61 64.2396 152.247C64.2396 148.884 66.9675 146.157 70.3324 146.157C73.6974 146.157 76.4252 148.884 76.4252 152.247Z" fill="#FF7272"/>
<path d="M76.4252 176.606C76.4252 179.97 73.6974 182.696 70.3324 182.696C66.9675 182.696 64.2396 179.97 64.2396 176.606C64.2396 173.243 66.9675 170.517 70.3324 170.517C73.6974 170.517 76.4252 173.243 76.4252 176.606Z" fill="#FF7272"/>
<path d="M110.545 6.08988C110.545 9.45322 107.817 12.1798 104.452 12.1798C101.087 12.1798 98.3594 9.45322 98.3594 6.08988C98.3594 2.72653 101.087 0 104.452 0C107.817 0 110.545 2.72653 110.545 6.08988Z" fill="#FF7272"/>
<path d="M110.545 30.4494C110.545 33.8127 107.817 36.5393 104.452 36.5393C101.087 36.5393 98.3594 33.8127 98.3594 30.4494C98.3594 27.086 101.087 24.3595 104.452 24.3595C107.817 24.3595 110.545 27.086 110.545 30.4494Z" fill="#FF7272"/>
<path d="M110.545 54.8089C110.545 58.1722 107.817 60.8988 104.452 60.8988C101.087 60.8988 98.3594 58.1722 98.3594 54.8089C98.3594 51.4456 101.087 48.719 104.452 48.719C107.817 48.719 110.545 51.4456 110.545 54.8089Z" fill="#FF7272"/>
<path d="M110.545 79.1684C110.545 82.5318 107.817 85.2583 104.452 85.2583C101.087 85.2583 98.3594 82.5318 98.3594 79.1684C98.3594 75.8051 101.087 73.0785 104.452 73.0785C107.817 73.0785 110.545 75.8051 110.545 79.1684Z" fill="#FF7272"/>
<path d="M110.545 103.528C110.545 106.891 107.817 109.618 104.452 109.618C101.087 109.618 98.3594 106.891 98.3594 103.528C98.3594 100.165 101.087 97.438 104.452 97.438C107.817 97.438 110.545 100.165 110.545 103.528Z" fill="#FF7272"/>
<path d="M110.545 127.887C110.545 131.251 107.817 133.977 104.452 133.977C101.087 133.977 98.3594 131.251 98.3594 127.887C98.3594 124.524 101.087 121.798 104.452 121.798C107.817 121.798 110.545 124.524 110.545 127.887Z" fill="#FF7272"/>
<path d="M110.545 152.247C110.545 155.61 107.817 158.337 104.452 158.337C101.087 158.337 98.3594 155.61 98.3594 152.247C98.3594 148.884 101.087 146.157 104.452 146.157C107.817 146.157 110.545 148.884 110.545 152.247Z" fill="#FF7272"/>
<path d="M110.545 176.606C110.545 179.97 107.817 182.696 104.452 182.696C101.087 182.696 98.3594 179.97 98.3594 176.606C98.3594 173.243 101.087 170.517 104.452 170.517C107.817 170.517 110.545 173.243 110.545 176.606Z" fill="#FF7272"/>
<path d="M144.665 6.08988C144.665 9.45322 141.937 12.1798 138.572 12.1798C135.207 12.1798 132.479 9.45322 132.479 6.08988C132.479 2.72653 135.207 0 138.572 0C141.937 0 144.665 2.72653 144.665 6.08988Z" fill="#FF7272"/>
<path d="M144.665 30.4494C144.665 33.8127 141.937 36.5393 138.572 36.5393C135.207 36.5393 132.479 33.8127 132.479 30.4494C132.479 27.086 135.207 24.3595 138.572 24.3595C141.937 24.3595 144.665 27.086 144.665 30.4494Z" fill="#FF7272"/>
<path d="M144.665 54.8089C144.665 58.1722 141.937 60.8988 138.572 60.8988C135.207 60.8988 132.479 58.1722 132.479 54.8089C132.479 51.4456 135.207 48.719 138.572 48.719C141.937 48.719 144.665 51.4456 144.665 54.8089Z" fill="#FF7272"/>
<path d="M144.665 79.1684C144.665 82.5318 141.937 85.2583 138.572 85.2583C135.207 85.2583 132.479 82.5318 132.479 79.1684C132.479 75.8051 135.207 73.0785 138.572 73.0785C141.937 73.0785 144.665 75.8051 144.665 79.1684Z" fill="#FF7272"/>
<path d="M144.665 103.528C144.665 106.891 141.937 109.618 138.572 109.618C135.207 109.618 132.479 106.891 132.479 103.528C132.479 100.165 135.207 97.438 138.572 97.438C141.937 97.438 144.665 100.165 144.665 103.528Z" fill="#FF7272"/>
<path d="M144.665 127.887C144.665 131.251 141.937 133.977 138.572 133.977C135.207 133.977 132.479 131.251 132.479 127.887C132.479 124.524 135.207 121.798 138.572 121.798C141.937 121.798 144.665 124.524 144.665 127.887Z" fill="#FF7272"/>
<path d="M144.665 152.247C144.665 155.61 141.937 158.337 138.572 158.337C135.207 158.337 132.479 155.61 132.479 152.247C132.479 148.884 135.207 146.157 138.572 146.157C141.937 146.157 144.665 148.884 144.665 152.247Z" fill="#FF7272"/>
<path d="M144.665 176.606C144.665 179.97 141.937 182.696 138.572 182.696C135.207 182.696 132.479 179.97 132.479 176.606C132.479 173.243 135.207 170.517 138.572 170.517C141.937 170.517 144.665 173.243 144.665 176.606Z" fill="#FF7272"/>
<path d="M178.785 6.08988C178.785 9.45322 176.057 12.1798 172.692 12.1798C169.327 12.1798 166.599 9.45322 166.599 6.08988C166.599 2.72653 169.327 0 172.692 0C176.057 0 178.785 2.72653 178.785 6.08988Z" fill="#FF7272"/>
<path d="M178.785 30.4494C178.785 33.8127 176.057 36.5393 172.692 36.5393C169.327 36.5393 166.599 33.8127 166.599 30.4494C166.599 27.086 169.327 24.3595 172.692 24.3595C176.057 24.3595 178.785 27.086 178.785 30.4494Z" fill="#FF7272"/>
<path d="M178.785 54.8089C178.785 58.1722 176.057 60.8988 172.692 60.8988C169.327 60.8988 166.599 58.1722 166.599 54.8089C166.599 51.4456 169.327 48.719 172.692 48.719C176.057 48.719 178.785 51.4456 178.785 54.8089Z" fill="#FF7272"/>
<path d="M178.785 79.1684C178.785 82.5318 176.057 85.2583 172.692 85.2583C169.327 85.2583 166.599 82.5318 166.599 79.1684C166.599 75.8051 169.327 73.0785 172.692 73.0785C176.057 73.0785 178.785 75.8051 178.785 79.1684Z" fill="#FF7272"/>
<path d="M178.785 103.528C178.785 106.891 176.057 109.618 172.692 109.618C169.327 109.618 166.599 106.891 166.599 103.528C166.599 100.165 169.327 97.438 172.692 97.438C176.057 97.438 178.785 100.165 178.785 103.528Z" fill="#FF7272"/>
<path d="M178.785 127.887C178.785 131.251 176.057 133.977 172.692 133.977C169.327 133.977 166.599 131.251 166.599 127.887C166.599 124.524 169.327 121.798 172.692 121.798C176.057 121.798 178.785 124.524 178.785 127.887Z" fill="#FF7272"/>
<path d="M178.785 152.247C178.785 155.61 176.057 158.337 172.692 158.337C169.327 158.337 166.599 155.61 166.599 152.247C166.599 148.884 169.327 146.157 172.692 146.157C176.057 146.157 178.785 148.884 178.785 152.247Z" fill="#FF7272"/>
<path d="M178.785 176.606C178.785 179.97 176.057 182.696 172.692 182.696C169.327 182.696 166.599 179.97 166.599 176.606C166.599 173.243 169.327 170.517 172.692 170.517C176.057 170.517 178.785 173.243 178.785 176.606Z" fill="#FF7272"/>
<path d="M212.904 6.08988C212.904 9.45322 210.177 12.1798 206.812 12.1798C203.447 12.1798 200.719 9.45322 200.719 6.08988C200.719 2.72653 203.447 0 206.812 0C210.177 0 212.904 2.72653 212.904 6.08988Z" fill="#FF7272"/>
<path d="M212.904 30.4494C212.904 33.8127 210.177 36.5393 206.812 36.5393C203.447 36.5393 200.719 33.8127 200.719 30.4494C200.719 27.086 203.447 24.3595 206.812 24.3595C210.177 24.3595 212.904 27.086 212.904 30.4494Z" fill="#FF7272"/>
<path d="M212.904 54.8089C212.904 58.1722 210.177 60.8988 206.812 60.8988C203.447 60.8988 200.719 58.1722 200.719 54.8089C200.719 51.4456 203.447 48.719 206.812 48.719C210.177 48.719 212.904 51.4456 212.904 54.8089Z" fill="#FF7272"/>
<path d="M212.904 79.1684C212.904 82.5318 210.177 85.2583 206.812 85.2583C203.447 85.2583 200.719 82.5318 200.719 79.1684C200.719 75.8051 203.447 73.0785 206.812 73.0785C210.177 73.0785 212.904 75.8051 212.904 79.1684Z" fill="#FF7272"/>
<path d="M212.904 103.528C212.904 106.891 210.177 109.618 206.812 109.618C203.447 109.618 200.719 106.891 200.719 103.528C200.719 100.165 203.447 97.438 206.812 97.438C210.177 97.438 212.904 100.165 212.904 103.528Z" fill="#FF7272"/>
<path d="M212.904 127.887C212.904 131.251 210.177 133.977 206.812 133.977C203.447 133.977 200.719 131.251 200.719 127.887C200.719 124.524 203.447 121.798 206.812 121.798C210.177 121.798 212.904 124.524 212.904 127.887Z" fill="#FF7272"/>
<path d="M212.904 152.247C212.904 155.61 210.177 158.337 206.812 158.337C203.447 158.337 200.719 155.61 200.719 152.247C200.719 148.884 203.447 146.157 206.812 146.157C210.177 146.157 212.904 148.884 212.904 152.247Z" fill="#FF7272"/>
<path d="M212.904 176.606C212.904 179.97 210.177 182.696 206.812 182.696C203.447 182.696 200.719 179.97 200.719 176.606C200.719 173.243 203.447 170.517 206.812 170.517C210.177 170.517 212.904 173.243 212.904 176.606Z" fill="#FF7272"/>
<path d="M247.024 6.08988C247.024 9.45322 244.296 12.1798 240.931 12.1798C237.566 12.1798 234.839 9.45322 234.839 6.08988C234.839 2.72653 237.566 0 240.931 0C244.296 0 247.024 2.72653 247.024 6.08988Z" fill="#FF7272"/>
<path d="M247.024 30.4494C247.024 33.8127 244.296 36.5393 240.931 36.5393C237.566 36.5393 234.839 33.8127 234.839 30.4494C234.839 27.086 237.566 24.3595 240.931 24.3595C244.296 24.3595 247.024 27.086 247.024 30.4494Z" fill="#FF7272"/>
<path d="M247.024 54.8089C247.024 58.1722 244.296 60.8988 240.931 60.8988C237.566 60.8988 234.839 58.1722 234.839 54.8089C234.839 51.4456 237.566 48.719 240.931 48.719C244.296 48.719 247.024 51.4456 247.024 54.8089Z" fill="#FF7272"/>
<path d="M247.024 79.1684C247.024 82.5318 244.296 85.2583 240.931 85.2583C237.566 85.2583 234.839 82.5318 234.839 79.1684C234.839 75.8051 237.566 73.0785 240.931 73.0785C244.296 73.0785 247.024 75.8051 247.024 79.1684Z" fill="#FF7272"/>
<path d="M247.024 103.528C247.024 106.891 244.296 109.618 240.931 109.618C237.566 109.618 234.839 106.891 234.839 103.528C234.839 100.165 237.566 97.438 240.931 97.438C244.296 97.438 247.024 100.165 247.024 103.528Z" fill="#FF7272"/>
<path d="M247.024 127.887C247.024 131.251 244.296 133.977 240.931 133.977C237.566 133.977 234.839 131.251 234.839 127.887C234.839 124.524 237.566 121.798 240.931 121.798C244.296 121.798 247.024 124.524 247.024 127.887Z" fill="#FF7272"/>
<path d="M247.024 152.247C247.024 155.61 244.296 158.337 240.931 158.337C237.566 158.337 234.839 155.61 234.839 152.247C234.839 148.884 237.566 146.157 240.931 146.157C244.296 146.157 247.024 148.884 247.024 152.247Z" fill="#FF7272"/>
<path d="M247.024 176.606C247.024 179.97 244.296 182.696 240.931 182.696C237.566 182.696 234.839 179.97 234.839 176.606C234.839 173.243 237.566 170.517 240.931 170.517C244.296 170.517 247.024 173.243 247.024 176.606Z" fill="#FF7272"/>
</g>
</svg>
